<?xml version="1.0" encoding="utf-8"?>
<!-- Generator: Adobe Illustrator 16.0.0, SVG Export Plug-In . SVG Version: 6.00 Build 0)  -->
<!DOCTYPE svg PUBLIC "-//W3C//DTD SVG 1.1//EN" "http://www.w3.org/Graphics/SVG/1.1/DTD/svg11.dtd">
<svg version="1.1" id="Layer_1" xmlns="http://www.w3.org/2000/svg" xmlns:xlink="http://www.w3.org/1999/xlink" x="0px" y="0px"
	 width="600px" height="210px" viewBox="0 0 600 210" enable-background="new 0 0 600 210" xml:space="preserve">
<g>
	<g>
		<path fill-rule="evenodd" clip-rule="evenodd" fill="#ED1B2F" d="M254.125,42.378c-0.518,1.003-1.122,1.974-1.545,3.016
			c-4.279,10.56-8.532,21.131-12.791,31.699c-3.368,8.364-6.703,16.739-10.137,25.074c-0.495,1.198-1.465,2.199-2.521,3.742
			c-1.125-1.392-2.119-2.232-2.625-3.304c-4.324-9.184-8.557-18.407-12.824-27.617c-2.074-4.479-4.156-8.952-6.25-13.423
			c-2.703-5.78-5.416-11.555-8.138-17.329c-0.248-0.521-0.589-1.001-0.884-1.5c-0.159,0.014-0.318,0.026-0.479,0.041
			c-0.153,0.648-0.438,1.297-0.441,1.946c-0.031,8.003-0.064,16.008-0.008,24.011c0.061,8.548,0.257,17.093,0.309,25.642
			c0.027,4.467,1.328,5.633,5.17,7.342c2.256,1.006,4.692,1.606,7.04,2.408c0.628,0.214,1.382,0.349,1.808,0.786
			c0.523,0.538,1.195,1.505,1.02,2.01c-0.223,0.641-1.221,1.388-1.916,1.418c-1.997,0.093-4.011-0.177-6.018-0.259
			c-3.305-0.134-6.62-0.449-9.912-0.294c-5.728,0.271-11.437,0.918-17.164,1.21c-0.953,0.048-2.408-0.659-2.83-1.447
			c-0.561-1.044,0.486-1.977,1.594-2.377c1.087-0.395,2.229-0.638,3.314-1.038c2.172-0.804,4.488-1.397,6.414-2.609
			c1.15-0.726,1.979-2.363,2.398-3.759c0.469-1.563,0.343-3.314,0.425-4.986c0.242-4.975,0.438-9.951,0.691-14.925
			c0.192-3.793,0.449-7.584,0.665-11.377c0.346-6.137,0.658-12.278,1.031-18.414c0.156-2.557,0.512-5.102,0.635-7.657
			c0.131-2.692-0.146-5.357-1.959-7.536c-0.476-0.57-1.277-0.945-2.002-1.213c-2.693-0.993-5.443-1.834-8.109-2.892
			c-0.667-0.264-1.601-1.203-1.519-1.679c0.117-0.69,0.966-1.364,1.649-1.821c1.99-1.334,4.133-0.14,6.205-0.202
			c3.564-0.11,7.134,0.02,10.699-0.042c2.64-0.047,5.301-0.516,7.904-0.277c2.019,0.186,3.68,1.555,4.6,3.52
			c4.912,10.502,9.836,20.998,14.711,31.521c2.818,6.086,5.53,12.22,8.349,18.305c0.296,0.643,0.979,1.106,1.481,1.654
			c0.519-0.604,1.253-1.121,1.525-1.82c5.379-13.808,10.684-27.645,16.063-41.453c1.163-2.98,2.429-5.938,3.894-8.78
			c1.922-3.726,5.646-3.749,8.983-3.661c4.303,0.114,8.612,0.08,12.919,0.021c1.949-0.028,3.894-0.309,5.844-0.399
			c1.472-0.068,2.986-0.209,4.409,0.067c0.73,0.143,1.629,1.036,1.829,1.761c0.152,0.551-0.516,1.72-1.109,2.004
			c-1.413,0.674-2.983,1.305-4.52,1.385c-5.127,0.261-9.326,2.956-10.199,7.629c-0.58,3.097-0.15,6.387-0.131,9.59
			c0.006,0.941,0.223,1.881,0.23,2.823c0.029,3.833-0.025,7.667,0.018,11.499c0.087,7.42,0.201,14.839,0.341,22.26
			c0.063,3.416,0.197,6.836,0.335,10.252c0.17,4.305,3.502,8.066,7.967,9.201c2.013,0.512,3.998,1.162,5.949,1.884
			c1.139,0.423,2.213,1.559,1.545,2.597c-0.592,0.919-2.144,1.746-3.25,1.718c-4.955-0.133-9.899-0.699-14.855-0.887
			c-4.405-0.164-8.828-0.147-13.234,0.01c-2.707,0.098-5.392,0.695-8.101,0.901c-1.255,0.097-2.56-0.106-3.801-0.374
			c-0.406-0.09-1.034-0.909-0.944-1.214c0.234-0.789,0.639-1.79,1.281-2.143c1.438-0.784,3.08-1.192,4.613-1.818
			c1.521-0.621,3.034-1.285,4.514-2.003c1.35-0.652,1.86-1.898,1.846-3.3c-0.084-8.435-0.193-16.869-0.332-25.302
			c-0.062-3.701-0.236-7.399-0.325-11.1c-0.13-5.503-0.218-11.007-0.362-16.509c-0.018-0.692-0.281-1.376-0.43-2.064
			C254.492,42.473,254.311,42.426,254.125,42.378z"/>
		<path fill-rule="evenodd" clip-rule="evenodd" fill="#ED1B2F" d="M409.032,83.131c0-1.466-0.151-2.949,0.029-4.393
			c0.451-3.627-1.988-6.424-5.894-6.845c-2.486-0.268-4.979-0.476-7.472-0.69c-1.829-0.156-3.44-2.362-2.413-3.877
			c0.288-0.423,0.737-0.891,1.201-1.017c2.654-0.719,5.312-0.711,8.085-0.516c4.123,0.294,8.294-0.08,12.445-0.169
			c0.9-0.02,1.804,0.005,2.702-0.05c5.29-0.323,10.577-0.762,15.871-0.935c1.354-0.042,2.864,0.512,4.071,1.198
			c1.236,0.702,0.913,2.642-0.606,3.274c-1.866,0.775-3.854,1.341-5.841,1.716c-2.397,0.453-4.736,0.829-5.718,3.483
			c-0.225,0.605-0.334,1.291-0.336,1.939c-0.024,6.145-0.113,12.29,0.024,18.431c0.079,3.644-1.737,5.939-4.602,7.71
			c-5.531,3.42-11.552,5.325-18.039,5.68c-5.14,0.278-10.297,0.768-15.431,0.611c-8.37-0.257-16.502-1.864-24.092-5.668
			c-8.142-4.082-14.304-10.18-18.401-18.278c-2.603-5.14-3.954-10.628-4.312-16.438c-0.392-6.36,1.43-12.217,3.133-18.174
			c1.21-4.236,3.554-7.849,5.741-11.559c0.583-0.988,1.501-1.811,2.359-2.605c3.719-3.442,7.529-6.776,12.101-9.076
			c5.89-2.961,12.184-4.515,18.648-5.687c5.346-0.968,10.695-1.133,16.051-0.884c5.254,0.246,10.537,0.674,15.57,2.433
			c3.849,1.345,5.853,4.22,6.488,8.134c0.275,1.697,0.629,3.408,0.628,5.113c-0.002,1.699-0.227,3.449-0.679,5.086
			c-0.471,1.702-2.68,2.025-3.742,0.601c-1.091-1.46-2.166-2.974-2.959-4.604c-2.331-4.782-6.098-8.042-10.833-10.124
			c-1.764-0.773-3.879-0.985-5.842-1.016c-3.936-0.061-7.964-0.293-11.789,0.424c-3.921,0.734-7.618,2.513-11.075,4.716
			c-4.561,2.906-7.602,7.058-10.249,11.594c-2.75,4.711-4.31,9.791-4.691,15.243c-0.139,1.993-0.686,3.985-0.605,5.961
			c0.166,4.002,0.492,8.011,1.046,11.977c0.216,1.527,1.325,2.909,1.874,4.411c1.675,4.589,4.439,8.41,7.843,11.868
			c4.078,4.142,8.899,6.944,14.303,9.023c3.623,1.394,7.379,1.896,11.077,1.841c3.798-0.057,7.46-1.062,10.729-3.698
			c2.681-2.162,2.881-4.826,3.222-7.611c0.344-2.829,0.365-5.695,0.529-8.546C409.132,83.136,409.083,83.134,409.032,83.131z"/>
		<path fill-rule="evenodd" clip-rule="evenodd" fill="#ED1B2F" d="M46.426,18.965c7.052-4.065,14.346-5.349,21.623-6.914
			c10.676-2.297,21.434-1.588,32.163-1.512c6.761,0.047,13.513,0.813,20.196,2.186c6.483,1.332,12.916,2.654,19.164,6.157
			c0.137,7.703,0.27,15.655,0.43,23.606c0.146,7.284-0.963,14.417-2.643,21.47c-1.008,4.24-1.781,8.595-3.357,12.625
			c-2.154,5.507-4.702,10.903-7.586,16.062c-2.561,4.575-5.654,8.878-8.791,13.094c-3.604,4.834-7.668,9.284-12.451,13.03
			c-3.412,2.672-6.795,5.382-10.148,8.126c-0.756,0.618-1.275,0.679-2.155,0.152c-5.626-3.357-10.499-7.646-15.354-11.993
			c-7.084-6.344-12.773-13.765-17.479-21.975c-3.982-6.949-7.138-14.281-9.501-21.923c-1.45-4.688-3.116-9.433-3.614-14.264
			c-0.762-7.399-0.643-14.895-0.807-22.354c-0.049-2.287,0.254-4.579,0.297-6.871C46.469,24.706,46.426,21.74,46.426,18.965z
			 M105.303,37.478c0.105-0.577,0.297-1.157,0.301-1.735c0.023-5.241-0.062-10.483,0.057-15.72c0.04-1.719-0.744-2.628-2.193-3.618
			c0,6.049,0.026,11.839-0.023,17.628c-0.009,1.087,0.182,1.98,1.057,2.663c-1.255-0.314-2.51-0.627-3.381-0.845
			c0.385-0.025,1.201-0.079,2.035-0.132c0-6.454,0-12.773,0-19.237c-1.802,1.053-3.42,0.461-5.08-0.065
			c-1.037-0.33-2.131-0.553-3.215-0.65c-1.058-0.096-1.619,0.431-1.559,1.617c0.079,1.569,0.018,3.149,0.018,4.725
			c0,4.378,0,8.758,0,12.977c1.854,0.094,3.555,0.181,4.963,0.251c-1.693,0.207-3.616,0.442-5.54,0.678
			c-1.849-0.253-3.694-0.504-4.728-0.644c1.078,0,3.021,0,5.088,0c0-5.745,0-11.372,0-16.998c0-2.545-0.203-2.747-2.754-2.627
			c-0.38,0.018-0.754,0.146-1.136,0.213c-2.175,0.385-4.225,1.998-6.627,0.52c0,6.492,0,12.829,0,19.257
			c0.966,0.049,1.851,0.096,2.737,0.14c-0.037-0.065-0.072-0.131-0.107-0.197c-1.438,0.453-2.874,0.903-4.311,1.354
			c1.184-0.894,1.432-2.077,1.406-3.527c-0.086-5.007-0.029-10.016-0.035-15.022c-0.002-0.517-0.062-1.032-0.096-1.547
			c-1.785,0.556-2.113,1.702-2.086,3.284c0.09,5.177,0.023,10.354,0.049,15.53c0.002,0.578,0.196,1.156,0.303,1.733
			c0.512,0.121,1.02,0.335,1.533,0.346c2.064,0.039,4.133-0.004,6.196,0.022c1.54,0.019,3.146,0.286,4.106-1.387
			c-0.117,0.396-0.234,0.79-0.404,1.359c4.451,0,8.674,0.005,12.896-0.015C104.949,37.808,105.126,37.594,105.303,37.478z
			 M62.725,42.007c-1.864,2.026-3.62,3.909-5.348,5.82c-2.996,3.315-5.988,6.636-8.938,9.994c-0.256,0.292-0.346,0.92-0.238,1.315
			c1.467,5.374,2.531,10.917,4.603,16.055c2.622,6.508,5.729,12.882,9.249,18.952c4.59,7.911,10.213,15.138,17.246,21.098
			c4.363,3.698,8.913,7.175,13.427,10.69c0.349,0.271,1.257,0.292,1.603,0.031c4.119-3.11,8.389-6.069,12.195-9.532
			c3.291-2.991,6.02-6.598,9.028-9.902c5.046-5.543,9.044-11.822,12.376-18.475c4.221-8.428,7.355-17.288,9.085-26.588
			c0.241-1.292,0.444-2.923-0.13-3.957c-0.897-1.616-2.496-2.838-3.754-4.263c-1.102-1.25-2.104-2.594-3.229-3.822
			c-2.255-2.465-4.564-4.881-6.934-7.404c-5.256,5.424-10.373,10.7-15.534,16.026c-1.81-2.03-3.501-3.959-5.229-5.857
			c-2.825-3.103-5.651-6.206-8.546-9.244c-0.261-0.271-1.205-0.293-1.512-0.042c-1.08,0.889-2.064,1.914-3.013,2.951
			c-3.583,3.919-7.138,7.866-10.739,11.841C73.178,52.473,68.047,47.335,62.725,42.007z M54.377,33.635
			c0.444,0.883,0.658,1.546,1.061,2.061c0.604,0.768,1.261,1.931,2.031,2.05c2.361,0.369,4.812,0.583,7.176,0.341
			c1.48-0.154,3.646,0.645,4.376-1.725c0.222-0.72,0.728-1.452,0.659-2.133c-0.061-0.602-0.741-1.141-1.149-1.706
			c2.026,1.467,2.427-0.449,3.108-1.848c0.462-0.943,0.922-1.902,1.23-2.902c0.201-0.648,0.13-1.382,0.18-2.076
			c-0.531,0.306-1.064,0.614-1.6,0.918c-0.09,0.053-0.189,0.087,0.004,0.001c-0.908-0.319-1.597-0.56-2.285-0.802
			c1.908,3.207,1.877,3.352-0.677,4.271c-1.129-0.536-2.017-1.093-2.985-1.396c-1.938-0.604-2.23-1.219-1.068-2.834
			c0.155-0.216,0.621-0.209,0.941-0.305c-0.264-0.084-0.529-0.17-0.793-0.254c-0.775-1.381-1.551-2.761-2.328-4.143
			c-0.164,0.01-0.328,0.019-0.494,0.027c-0.305,0.738-0.601,1.479-0.918,2.214c-0.281,0.654-0.588,1.298-1.006,2.218
			c-0.16-0.138,0.072-0.002,0.215,0.195c1.156,1.609,0.852,2.343-1.037,2.887c-0.764,0.219-1.423,0.821-2.188,1.021
			c-0.7,0.182-1.681,0.336-2.172-0.014c-0.568-0.4-0.951-1.314-0.199-2.154c0.459-0.51,0.762-1.158,1.133-1.743
			c-0.072-0.118-0.143-0.235-0.215-0.354c-0.716,0.188-1.433,0.376-2.45,0.642c-0.362-0.124-1.157-0.398-2.244-0.773
			c1.13,2.611,2.067,4.853,3.095,7.049c0.135,0.29,0.752,0.543,1.111,0.505c1.363-0.145,2.715-0.413,4.071-0.634
			c0.009,0.069,0.019,0.141,0.028,0.211C57.52,32.827,56.053,33.204,54.377,33.635z M130.548,30.086
			c-1.386-0.597-2.401-1.1-3.464-1.472c-1.229-0.43-1.616-1.584-0.75-2.535c0.274-0.301,0.618-0.54,1.143-0.989
			c-0.779-0.151-1.287-0.25-1.506-0.292c-0.479-1.346-0.892-2.502-1.302-3.654c-0.192,0.031-0.385,0.065-0.577,0.1
			c-0.794,1.399-1.586,2.799-2.289,4.037c0.287,0.728,0.97,1.615,0.806,2.298c-0.138,0.568-1.259,0.914-1.96,1.331
			c-0.506,0.3-1.012,0.685-1.562,0.799c-0.72,0.146-1.681,0.346-2.176,0.004c-0.562-0.389-0.971-1.289-0.23-2.148
			c0.404-0.471,0.602-1.121,0.892-1.689c-0.104-0.143-0.208-0.286-0.313-0.428c-0.73,0.291-1.462,0.581-1.954,0.777
			c-0.808-0.273-1.495-0.507-2.182-0.738c-0.085,0.139-0.171,0.279-0.257,0.421c1.111,2.394,2.221,4.786,3.237,6.979
			c1.778-0.2,3.404-0.382,5.028-0.565c0,0.045,0,0.09-0.002,0.134c-1.469,0.348-2.941,0.695-4.456,1.054
			c0.435,1.125,0.631,2.026,1.106,2.739c0.428,0.639,1.118,1.443,1.773,1.528c2.264,0.288,4.567,0.372,6.854,0.39
			c4.031,0.03,4.338-0.24,5.546-4.109c0.015-0.046-0.015-0.106-0.052-0.347c-0.512-0.268-1.121-0.585-1.732-0.904
			c0.938,0.067,2.139,0.01,2.476-0.562c1.167-1.979,2.036-4.134,3.016-6.223c-0.12-0.166-0.241-0.332-0.363-0.499
			c-0.655,0.365-1.312,0.73-1.793,1c-0.792-0.259-1.575-0.516-2.635-0.859C132.65,29.073,132.65,29.073,130.548,30.086z"/>
		<path fill-rule="evenodd" clip-rule="evenodd" fill="#ED1B2F" d="M514.048,107.063c0.514-2.243,2.447-2.46,3.918-3.222
			c1.125-0.582,2.35-0.969,3.521-1.464c2.27-0.959,3.189-2.816,3.214-5.143c0.046-4.449,0.046-8.901,0.008-13.353
			c-0.092-10.064-0.203-20.128-0.339-30.192c-0.075-5.5-0.122-11.006-0.371-16.5c-0.132-2.867-1.098-5.407-4.194-6.532
			c-1.046-0.38-2.492-0.693-2.43-2.147c0.07-1.611,1.654-1.971,2.833-2.434c4.515-1.773,9.088-3.399,13.609-5.166
			c2.005-0.782,3.875,0.271,3.936,2.51c0.038,1.496-0.29,2.998-0.293,4.501c-0.028,10.759-0.061,21.521-0.004,32.28
			c0.058,11.022,0.19,22.046,0.343,33.066c0.036,2.518,0.335,5.102,2.313,6.896c1.223,1.107,2.873,1.731,4.292,2.635
			c1.462,0.933,3.004,1.798,4.27,2.959c1.061,0.972,0.229,1.927-0.818,2.171c-1.134,0.266-2.365,0.184-3.551,0.135
			c-4.858-0.197-9.719-0.631-14.577-0.602c-3.768,0.021-7.528,0.656-11.301,0.907C516.847,108.473,515.184,108.486,514.048,107.063z
			"/>
		<path fill-rule="evenodd" clip-rule="evenodd" fill="#ED1B2F" d="M510.026,106.197c-1.308,1.758-3.141,1.618-4.916,1.497
			c-2.161-0.146-4.31-0.54-6.472-0.604c-3.506-0.104-7.024-0.141-10.529,0.011c-2.541,0.108-5.062,0.667-7.606,0.838
			c-1.535,0.104-3.102-0.084-4.637-0.287c-0.395-0.051-1.071-0.79-1-0.985c0.246-0.676,0.633-1.49,1.212-1.818
			c1.437-0.815,3.005-1.402,4.531-2.063c3.155-1.371,5.096-3.255,4.911-6.87c-0.195-3.823-0.015-7.665-0.049-11.496
			c-0.096-10.521-0.203-21.043-0.343-31.563c-0.067-5.277-0.11-10.561-0.37-15.831c-0.146-2.909-1.102-5.495-4.21-6.743
			c-0.935-0.374-2.188-1.197-2.345-1.998c-0.266-1.389,1.207-1.898,2.348-2.327c2.426-0.913,4.874-1.766,7.295-2.687
			c2.272-0.864,4.532-1.76,6.776-2.695c1.799-0.751,3.396,0.124,3.569,2.053c0.062,0.672,0.014,1.354,0.014,2.03
			c0,10.146-0.043,20.292,0.011,30.438c0.067,12.832,0.021,25.67,0.422,38.492c0.162,5.196,1.467,6.877,6.51,8.896
			C507.033,103.236,509.265,103.698,510.026,106.197z"/>
		<path fill-rule="evenodd" clip-rule="evenodd" fill="#ED1B2F" d="M316.793,48.996c5.275,0.127,10.006,0.977,14.118,3.812
			c1.805,1.246,2.967,3.249,2.802,5.418c-0.153,1.983-0.845,4.094-3.102,4.921c-2.799,1.022-4.985-0.354-6.955-2.07
			c-1.17-1.021-2.214-2.226-3.148-3.472c-2.903-3.869-7.634-4.387-11.742-2.435c-5.697,2.708-8.449,7.621-9.979,13.406
			c-2.085,7.883-1.276,15.405,3.247,22.309c2.496,3.806,6.222,6.417,10.421,7.609c2.968,0.844,6.41,0.354,9.59,0.008
			c2.378-0.259,4.652-1.362,7.023-1.842c1.062-0.214,2.725-0.237,3.277,0.391c1.112,1.264-0.055,2.562-1.146,3.288
			c-1.702,1.134-3.575,2.012-5.396,2.961c-0.683,0.354-1.493,0.499-2.126,0.92c-3.237,2.164-7.009,2.346-10.663,2.805
			c-6.379,0.805-12.367-0.96-17.442-4.544c-6.186-4.367-10.297-10.379-11.775-18.118c-1.054-5.511,0.746-10.322,2.499-15.254
			c1.283-3.616,3.448-6.735,5.919-9.557c1.731-1.981,3.906-3.698,6.166-5.062c4.091-2.469,8.54-4.221,13.294-5
			C313.485,49.194,315.332,49.132,316.793,48.996z"/>
		<path fill-rule="evenodd" clip-rule="evenodd" fill="#ED1B2F" d="M469.904,108.248c-3.031-0.331-6.051-0.781-9.09-0.958
			c-2.957-0.171-5.951-0.27-8.896-0.021c-2.964,0.252-5.88,1.022-8.833,1.442c-0.784,0.111-1.676-0.113-2.442-0.396
			c-0.925-0.338-0.901-2.18,0.179-2.923c1.302-0.897,2.727-1.719,4.219-2.217c3.605-1.204,4.453-2.339,4.521-5.664
			c0.181-8.901,0.225-17.813-0.017-26.714c-0.103-3.839-0.783-6.178-5.351-7.243c-0.622-0.146-1.474-0.87-1.536-1.404
			c-0.064-0.543,0.586-1.444,1.154-1.736c1.911-0.977,3.9-1.818,5.904-2.59c3.286-1.266,6.361-2.854,9.001-5.234
			c0.609-0.551,1.312-1.138,2.073-1.343c0.661-0.179,1.628-0.058,2.155,0.336c0.456,0.343,0.718,1.272,0.668,1.913
			c-0.233,2.982-0.849,5.953-0.879,8.932c-0.113,10.595-0.028,21.194-0.053,31.791c-0.012,4.273,2.082,7.906,6.795,8.972
			c0.816,0.186,1.71,0.742,2.213,1.398c0.473,0.621,0.874,1.8,0.587,2.375c-0.369,0.748-1.452,1.14-2.229,1.684
			C470,108.514,469.95,108.383,469.904,108.248z"/>
		<path fill-rule="evenodd" clip-rule="evenodd" fill="#ED1B2F" d="M456.699,36.021c-3.122,0.053-7.453-4.275-7.404-7.403
			c0.052-3.481,3.763-7.288,7.157-7.344c3.647-0.058,7.388,3.529,7.58,7.272C464.189,31.607,459.915,35.965,456.699,36.021z"/>
		<path fill-rule="evenodd" clip-rule="evenodd" fill="#ED1B2F" d="M66.45,80.054c-1.06-0.959-1.966-1.929-3.019-2.704
			c-2.602-1.92-3.295-4.011-2.17-6.97c0.529-1.392,0.433-1.7-0.902-2.648c0.949-0.871,1.743-1.819-0.486-2.411
			c1.244-0.904,2.231-1.702,3.296-2.38c2.169-1.383,6.69,0.631,6.506,3.937c-0.13,2.312,1.344,3.423,3.624,2.739
			c2.795-0.842,5.525-1.906,8.283-2.868c0.197-0.069,0.406-0.102,0.718-0.179c-0.531,1.123-1.007,2.129-1.591,3.363
			c0.908-0.104,1.623-0.187,2.34-0.269c0.106,0.117,0.215,0.236,0.324,0.354c-1.227,1.44-2.449,2.883-3.763,4.426
			c0.933,2.465,4.282,3.134,9.833,1.905c-0.88,0.742-1.759,1.481-2.771,2.335c1.16,1.617,2.412,3.36,3.663,5.104
			c-5.333-2.638-10.659-4.075-16.567-2.558c0.131,0.34,0.145,0.456,0.208,0.525c0.514,0.554,1.038,1.098,1.556,1.647
			c-0.766,0.331-1.666,1.106-2.273,0.919c-2.395-0.734-4.744,0.442-7.201-0.02c0.24-0.582,0.447-1.082,0.639-1.552
			c-0.582-0.639-1.135-1.248-1.689-1.854C65.395,80.67,65.783,80.442,66.45,80.054z"/>
		<path fill-rule="evenodd" clip-rule="evenodd" fill="#ED1B2F" d="M117.568,67.306c-0.55,1.175-1.019,2.173-1.576,3.365
			c0.865-0.074,1.558-0.134,2.695-0.231c-0.965,1.208-1.754,2.162-2.5,3.147c-0.363,0.485-1.035,1.288-0.895,1.499
			c0.508,0.767,1.255,1.825,1.998,1.9c2.377,0.24,4.791,0.089,7.259,0.089c-0.825,0.734-1.751,1.558-2.537,2.257
			c1.306,1.763,2.592,3.501,3.877,5.236c-5.513-2.21-10.776-4.893-17.067-2.49c0.902,0.666,1.633,1.2,2.436,1.792
			c-1.537,1.466-3.109,1.554-4.832,0.812c-0.27-0.116-0.619-0.129-0.915-0.084c-1.358,0.205-2.708,0.445-4.345,0.722
			c0.316-0.896,0.51-1.44,0.756-2.138c-0.561-0.505-1.159-1.048-1.928-1.739c0.58-0.186,0.965-0.31,1.356-0.435
			c0-0.09,0.043-0.23-0.007-0.28c-1.397-1.43-2.801-2.853-4.207-4.271c-1.277-1.289-1.666-3.205-0.975-4.877
			c0.469-1.136,1.064-2.276-0.439-3.273c1.101-1.005,1-1.804-0.571-2.304c1.751-1.285,3.269-2.613,5.428-2.783
			c1.599-0.124,4.03,1.906,4.231,3.635c0.131,1.111-0.348,2.315,1.002,3.143c1.48,0.909,2.903,0.503,4.272,0.034
			c2.294-0.787,4.517-1.779,6.774-2.674C117,67.3,117.18,67.331,117.568,67.306z"/>
		<path fill-rule="evenodd" clip-rule="evenodd" fill="#ED1B2F" d="M84.667,105.962c-1.777-2.202-4.067-4.028-4.913-6.376
			c-0.826-2.298-0.178-5.126-0.178-7.791c-0.389-0.257-0.775-0.512-1.166-0.771c2.77-2.846,4.221-3.484,7.434-2.139
			c1.426,0.596,2,1.674,2.061,3.11c0.119,2.916,2.139,4.208,4.923,3.079c1.896-0.771,3.747-1.656,5.65-2.41
			c0.669-0.266,1.432-0.293,2.378-0.471c-0.695,1.173-1.219,2.058-1.822,3.072c0.895,0.053,1.562,0.09,2.725,0.155
			c-0.988,1.209-1.797,2.179-2.582,3.171c-0.35,0.44-1.016,1.08-0.898,1.355c0.297,0.69,0.91,1.683,1.48,1.741
			c2.184,0.229,4.4,0.145,6.605,0.164c0.387,0.003,0.775-0.048,1.668-0.111c-1.291,0.972-2.221,1.672-2.934,2.209
			c1.244,1.768,2.42,3.441,3.597,5.113c-0.095,0.12-0.188,0.241-0.281,0.362c-5.22-2.201-10.378-4.802-16.745-2.621
			c1.034,0.739,1.753,1.251,2.463,1.759c-1.684,1.664-2.188,1.731-4.23,0.992c-0.576-0.208-1.359-0.135-1.957,0.073
			c-1.754,0.618-1.93,0.666-3.298-0.158c2.164-2.115-1.251-1.767-1.235-3.134C83.732,106.242,84.16,106.113,84.667,105.962z"/>
		<path fill-rule="evenodd" clip-rule="evenodd" fill="#ED1B2F" d="M123.158,30.844c0.431-0.693,0.772-1.241,1.164-1.872
			c0.384,0.606,0.74,1.166,1.189,1.872C124.701,30.844,124.021,30.844,123.158,30.844z"/>
	</g>
	<text transform="matrix(1 0 0 1 180.8721 159.4443)"><tspan x="0" y="0" fill="#5D6770" font-family="'PFDinTextPro-Light'" font-size="25.8818">Department of</tspan><tspan x="0" y="31.059" fill="#5D6770" font-family="'PFDinTextPro-Medium'" font-size="25.8818">Physics</tspan></text>
	<text transform="matrix(1 0 0 1 378.0479 159.4443)"><tspan x="0" y="0" fill="#5D6770" font-family="'PFDinTextPro-Light'" font-size="25.8818">Département de</tspan><tspan x="0" y="31.059" fill="#5D6770" font-family="'PFDinTextPro-Medium'" font-size="25.8818">Physique</tspan></text>
</g>
</svg>
